HIERARCHY
ROOT Hips
{
	OFFSET -0.001795 -0.223333 0.028219
	CHANNELS 6 Xposition Yposition Zposition Zrotation Yrotation Xrotation 
	JOINT LeftUpLeg
	{
		OFFSET 0.069520 -0.091406 -0.006815
		CHANNELS 3 Zrotation Yrotation Xrotation
		JOINT LeftLeg
		{
			OFFSET 0.034277 -0.375199 -0.004496
			CHANNELS 3 Zrotation Yrotation Xrotation
			JOINT LeftFoot
			{
				OFFSET -0.013596 -0.397961 -0.043693
				CHANNELS 3 Zrotation Yrotation Xrotation
				JOINT LeftToe
				{
					OFFSET 0.026358 -0.055791 0.119288
					CHANNELS 3 Zrotation Yrotation Xrotation
					End Site
					{
						OFFSET 0.000000 0.000000 0.000000
					}
				}
			}
		}
	}
	JOINT RightUpLeg
	{
		OFFSET -0.067670 -0.090522 -0.004320
		CHANNELS 3 Zrotation Yrotation Xrotation
		JOINT RightLeg
		{
			OFFSET -0.038290 -0.382569 -0.008850
			CHANNELS 3 Zrotation Yrotation Xrotation
			JOINT RightFoot
			{
				OFFSET 0.015774 -0.398415 -0.042312
				CHANNELS 3 Zrotation Yrotation Xrotation
				JOINT RightToe
				{
					OFFSET -0.025372 -0.048144 0.123348
					CHANNELS 3 Zrotation Yrotation Xrotation
					End Site
					{
						OFFSET 0.000000 0.000000 0.000000
					}
				}
			}
		}
	}
	JOINT Spine
	{
		OFFSET -0.002533 0.108963 -0.026696
		CHANNELS 3 Zrotation Yrotation Xrotation
		JOINT Spine1
		{
			OFFSET 0.005487 0.135180 0.001092
			CHANNELS 3 Zrotation Yrotation Xrotation
			JOINT Spine2
			{
				OFFSET 0.001457 0.052922 0.025425
				CHANNELS 3 Zrotation Yrotation Xrotation
				JOINT Neck
				{
					OFFSET -0.002778 0.213870 -0.042857
					CHANNELS 3 Zrotation Yrotation Xrotation
					JOINT Head
					{
						OFFSET 0.005152 0.064970 0.051349
						CHANNELS 3 Zrotation Yrotation Xrotation
						End Site
						{
							OFFSET 0.000000 0.000000 0.000000
						}
					}
				}
				JOINT LeftShoulder
				{
					OFFSET 0.078845 0.121749 -0.034090
					CHANNELS 3 Zrotation Yrotation Xrotation
					JOINT LeftArm
					{
						OFFSET 0.090977 0.030469 -0.008868
						CHANNELS 3 Zrotation Yrotation Xrotation
						JOINT LeftForeArm
						{
							OFFSET 0.259612 -0.012772 -0.027456
							CHANNELS 3 Zrotation Yrotation Xrotation
							JOINT LeftHand
							{
								OFFSET 0.249234 0.008986 -0.001171
								CHANNELS 3 Zrotation Yrotation Xrotation
								End Site
								{
									OFFSET 0.000000 0.000000 0.000000
								}
							}
						}
					}
				}
				JOINT RightShoulder
				{
					OFFSET -0.081759 0.118833 -0.038615
					CHANNELS 3 Zrotation Yrotation Xrotation
					JOINT RightArm
					{
						OFFSET -0.096012 0.032551 -0.009143
						CHANNELS 3 Zrotation Yrotation Xrotation
						JOINT RightForeArm
						{
							OFFSET -0.253742 -0.013329 -0.021401
							CHANNELS 3 Zrotation Yrotation Xrotation
							JOINT RightHand
							{
								OFFSET -0.255298 0.007772 -0.005559
								CHANNELS 3 Zrotation Yrotation Xrotation
								End Site
								{
									OFFSET 0.000000 0.000000 0.000000
								}
							}
						}
					}
				}
			}
		}
	}
}
MOTION
Frames: 18
Frame Time: 0.050000
0.000000 0.934321 0.000000 -1.845111 -17.412828 -0.033773 5.710900 0.044096 -22.794490 -2.352016 0.346875 -0.896594 6.154641 12.671671 20.423650 0.000000 0.000000 0.000000 0.747128 -0.784376 10.661467 0.655939 0.118022 3.775415 2.333392 2.610022 3.639434 0.000000 0.000000 0.000000 3.588910 -0.766038 14.630994 -4.010481 1.236150 -24.210872 0.829166 14.341752 26.467138 8.054423 -2.524038 -25.181312 0.000000 0.000000 0.000000 -20.996893 -4.835929 0.653905 -50.137925 -10.185291 -3.966659 -4.310030 -24.457182 2.012151 0.000000 0.000000 0.000000 25.310498 -2.515771 -2.109116 55.155022 14.174443 -1.566432 5.137135 26.705826 2.574105 0.000000 0.000000 0.000000 
-0.003600 0.925118 0.045168 -2.504179 -18.819612 0.849163 8.018028 0.755012 -23.343618 -1.901826 0.444318 -8.054767 3.499268 9.517125 27.513904 0.000000 0.000000 0.000000 0.272923 -0.766539 12.886016 -0.834357 0.297454 4.116648 4.166301 7.893100 2.322281 0.000000 0.000000 0.000000 2.746003 -0.637420 14.300140 -3.068960 1.116112 -28.178226 2.576288 15.576840 30.428329 6.682137 -1.443448 -27.372433 0.000000 0.000000 0.000000 -21.794158 -4.414238 0.484244 -49.666078 -10.685462 -4.092635 -6.162535 -23.048898 2.293120 0.000000 0.000000 0.000000 24.978274 -4.465862 -3.164520 56.232164 13.736895 -2.101151 5.828356 28.527136 3.070387 0.000000 0.000000 0.000000 
-0.005947 0.917671 0.096085 -2.216423 -20.041845 0.583915 6.970055 0.619485 -24.200781 -1.034611 0.200664 -2.579789 3.283113 8.942199 26.572201 0.000000 0.000000 0.000000 -1.882569 -0.354133 15.664783 -0.258187 0.327541 5.614123 4.819996 9.338911 2.340828 0.000000 0.000000 0.000000 2.654840 -0.603670 14.567592 -4.174602 1.299714 -27.381680 1.308223 17.102101 29.821556 7.791952 -2.036943 -26.635409 0.000000 0.000000 0.000000 -19.893448 -3.372404 -0.200394 -50.184083 -10.335552 -4.263927 -5.193415 -21.334312 1.901885 0.000000 0.000000 0.000000 28.315418 -4.979446 -3.497639 55.573248 15.159806 -1.627921 3.909371 26.746658 2.471855 0.000000 0.000000 0.000000 
-0.006133 0.914854 0.152753 -1.809904 -21.257708 0.964187 7.034516 0.811171 -25.540502 -3.518799 0.625013 4.216214 3.203355 8.604533 25.229167 0.000000 0.000000 0.000000 -4.170756 0.241561 16.966175 -0.145653 0.513118 8.444924 6.263284 10.085858 4.921311 0.000000 0.000000 0.000000 1.408754 -0.413731 13.045783 -3.809042 1.224471 -27.403197 1.591210 18.674334 30.830926 7.391598 -1.755089 -25.788634 0.000000 0.000000 0.000000 -20.473107 -3.408906 -0.421366 -48.902947 -9.647152 -4.473717 -6.137227 -20.843779 2.001039 0.000000 0.000000 0.000000 29.108255 -4.731734 -3.100278 54.771143 14.943164 -1.930141 6.136556 26.614989 2.971677 0.000000 0.000000 0.000000 
-0.003812 0.918404 0.214436 -1.399735 -21.225404 0.569903 5.822482 0.429620 -25.016288 -4.777932 1.207422 10.340146 3.240148 8.216292 19.969570 0.000000 0.000000 0.000000 -5.890807 0.672197 17.535105 -0.775445 0.966512 12.509513 9.541573 9.202966 13.599666 0.000000 0.000000 0.000000 0.466773 -0.298009 11.814362 -4.093049 1.237228 -26.028371 1.908297 19.312341 30.586528 7.830191 -1.955940 -25.342260 0.000000 0.000000 0.000000 -20.569418 -4.195854 -0.196571 -48.797105 -9.447383 -4.470514 -4.846861 -19.530493 1.625069 0.000000 0.000000 0.000000 30.309997 -4.588119 -2.796191 54.361120 13.912421 -2.538761 6.134284 26.537372 3.005423 0.000000 0.000000 0.000000 
0.000869 0.926576 0.277335 -1.094693 -20.784679 0.338093 4.629758 0.001195 -23.590169 -6.716564 2.013948 13.621569 4.600372 10.124841 17.946784 0.000000 0.000000 0.000000 -7.717104 0.922860 14.728404 -0.721493 1.947910 21.096316 12.462259 7.707168 22.871669 0.000000 0.000000 0.000000 -0.002426 -0.248466 11.225454 -4.189575 1.271788 -25.936995 1.934759 19.063670 30.782117 6.995327 -1.404161 -25.551755 0.000000 0.000000 0.000000 -21.176693 -4.301728 -0.219525 -48.141235 -8.352543 -4.811057 -4.771082 -20.066615 1.654632 0.000000 0.000000 0.000000 29.572902 -4.416457 -2.614920 55.555077 12.170045 -3.276140 7.197089 26.099265 3.177205 0.000000 0.000000 0.000000 
0.006397 0.934658 0.337271 -0.885289 -18.424599 -0.570258 1.921966 -0.814879 -20.719267 -6.775620 2.115153 15.465721 5.642665 11.925720 16.222297 0.000000 0.000000 0.000000 -7.471496 0.566294 10.306673 -1.201835 3.817780 32.703536 12.583308 4.328933 30.050477 0.000000 0.000000 0.000000 -0.165688 -0.255249 11.978753 -3.716820 1.219121 -26.477560 1.147208 17.759734 30.579328 8.559999 -2.358596 -25.654130 0.000000 0.000000 0.000000 -20.963418 -4.737481 -0.007958 -47.591679 -8.402319 -4.731240 -5.363339 -20.586316 1.788470 0.000000 0.000000 0.000000 29.770329 -5.900276 -3.635688 55.299302 10.541224 -3.981516 8.443391 25.954159 3.428047 0.000000 0.000000 0.000000 
0.011963 0.940262 0.391958 -1.068777 -17.046026 -1.427257 -0.142492 -1.136713 -15.946279 -6.034939 1.743376 14.418228 5.731046 12.196779 13.936404 0.000000 0.000000 0.000000 -6.710533 0.356425 3.808615 0.057564 5.382240 44.540639 8.559689 -0.773095 30.467863 0.000000 0.000000 0.000000 0.421951 -0.348086 13.111876 -3.739422 1.235740 -26.437115 -0.268362 15.508680 30.284273 7.919867 -2.312496 -25.058397 0.000000 0.000000 0.000000 -21.314496 -5.229415 0.648981 -46.120062 -8.591769 -4.658857 -5.959834 -22.155560 2.078550 0.000000 0.000000 0.000000 29.578184 -5.716125 -4.008049 55.146883 8.744040 -4.668148 9.890712 26.969982 3.843121 0.000000 0.000000 0.000000 
0.016878 0.945829 0.442576 -1.240561 -15.409718 -2.943364 -2.436215 -1.098509 -10.307926 -4.340067 1.109830 13.149198 5.089129 11.308512 11.782321 0.000000 0.000000 0.000000 -5.854374 0.401511 -2.150212 2.178117 5.340495 51.977004 3.905854 -3.124014 20.921113 0.000000 0.000000 0.000000 0.909633 -0.442645 14.850348 -3.142748 1.125404 -26.308584 -1.958586 13.081830 29.867686 7.856238 -2.531613 -25.119378 0.000000 0.000000 0.000000 -21.681092 -4.854663 0.804880 -45.439930 -9.219602 -4.470306 -5.403776 -24.443833 2.241959 0.000000 0.000000 0.000000 29.237568 -5.435310 -4.282149 55.138396 7.724398 -4.983008 10.471543 27.550961 3.999106 0.000000 0.000000 0.000000 
0.021364 0.950361 0.490126 -2.016236 -12.994856 -3.465082 -3.909778 -0.685310 -5.139671 -2.342061 0.422418 10.737970 3.961722 9.554842 10.051856 0.000000 0.000000 0.000000 -3.487187 0.745558 -8.386890 3.046163 4.522655 54.165216 -0.626783 -6.576358 10.389501 0.000000 0.000000 0.000000 2.342637 -0.691970 15.530635 -3.134206 1.170881 -26.728920 -2.960841 10.078499 30.334542 6.938356 -2.346769 -24.568175 0.000000 0.000000 0.000000 -21.774716 -5.552426 1.649226 -45.202551 -10.976377 -3.992163 -3.888632 -27.005494 2.213020 0.000000 0.000000 0.000000 29.333595 -5.496596 -4.859117 55.073022 6.080946 -5.633593 10.711724 29.064546 4.251564 0.000000 0.000000 0.000000 
0.025354 0.953283 0.535282 -2.757643 -9.773598 -3.903640 -4.634281 -0.095364 -0.449816 -0.837415 -0.001920 8.607708 2.371379 6.916755 8.829338 0.000000 0.000000 0.000000 -1.404053 1.418131 -14.262691 2.388093 3.584642 51.371963 -1.506598 -7.444499 8.415028 0.000000 0.000000 0.000000 3.063901 -0.886547 16.324743 -2.545163 1.098161 -27.020268 -4.055639 6.851097 30.964831 6.644866 -2.421232 -24.713733 0.000000 0.000000 0.000000 -20.994697 -5.184502 1.828204 -46.005107 -13.565576 -3.255684 -3.010934 -29.478707 2.325511 0.000000 0.000000 0.000000 28.615511 -5.797490 -5.373668 55.372816 4.147983 -6.463164 11.129550 29.702388 4.409312 0.000000 0.000000 0.000000 
0.029145 0.953274 0.579501 -3.495988 -6.246875 -4.042260 -4.808729 0.526282 3.910079 0.513275 -0.264281 6.285863 0.689675 3.919282 7.600516 0.000000 0.000000 0.000000 0.435721 2.092034 -18.524665 0.571188 2.814953 43.196109 -1.117911 -6.038146 7.180146 0.000000 0.000000 0.000000 3.676350 -1.066212 16.450300 -1.385073 0.892133 -27.189096 -5.249826 4.671979 31.485090 6.609009 -2.406335 -25.082678 0.000000 0.000000 0.000000 -19.634508 -5.396262 1.967620 -47.208647 -15.966051 -2.430083 -1.791417 -31.934774 2.258229 0.000000 0.000000 0.000000 28.313061 -6.531212 -5.778874 56.012505 2.901050 -7.122547 10.533808 30.341647 4.401174 0.000000 0.000000 0.000000 
0.033122 0.950801 0.624182 -3.803872 -1.935438 -4.167420 -4.541525 1.063244 7.994227 1.187486 -0.321201 4.270812 -1.362269 0.161178 6.652321 0.000000 0.000000 0.000000 1.334581 2.453668 -21.188924 -0.901638 1.894090 31.968738 -0.335174 -4.050845 7.079584 0.000000 0.000000 0.000000 3.680838 -1.169193 16.379658 -0.018455 0.654015 -27.317022 -6.459987 2.692669 31.547751 5.971136 -1.885109 -25.338648 0.000000 0.000000 0.000000 -18.698895 -5.939018 2.048252 -47.791403 -18.271623 -1.448211 -1.526336 -35.064669 2.395309 0.000000 0.000000 0.000000 27.818506 -7.442096 -6.052388 56.406463 0.749757 -8.140491 10.987930 29.466926 4.412444 0.000000 0.000000 0.000000 
0.037946 0.944672 0.670315 -4.033688 1.183170 -3.849001 -4.532809 1.432023 11.108857 2.270044 -0.430067 3.299618 -2.594503 -2.455105 5.508281 0.000000 0.000000 0.000000 1.646958 2.528465 -22.280280 -0.625979 0.816753 17.430644 2.082002 0.039436 10.106890 0.000000 0.000000 0.000000 3.618750 -1.178364 15.587589 0.506907 0.574874 -27.190017 -6.431246 0.868609 31.579441 5.192595 -1.316922 -26.034261 0.000000 0.000000 0.000000 -18.080140 -5.745608 1.890870 -48.287768 -19.703604 -0.818394 -1.721667 -37.399783 2.652140 0.000000 0.000000 0.000000 26.405075 -7.992196 -6.151137 57.221310 -1.198875 -9.077511 10.843786 28.774426 4.258943 0.000000 0.000000 0.000000 
0.043349 0.935981 0.718801 -3.756828 3.393714 -3.461375 -4.550944 1.721508 13.824728 2.137778 -0.430070 3.678314 -2.812559 -3.643611 3.832906 0.000000 0.000000 0.000000 1.168435 2.384050 -22.618401 1.405097 -0.054640 4.422211 5.465845 3.886285 16.595321 0.000000 0.000000 0.000000 3.357119 -1.133795 14.890111 1.136726 0.475127 -27.438959 -6.879273 0.452237 32.071879 5.313258 -1.259525 -26.009363 0.000000 0.000000 0.000000 -17.764643 -5.885196 1.750927 -48.609561 -20.063303 -0.664507 -2.707860 -39.721486 3.133609 0.000000 0.000000 0.000000 26.207206 -8.295323 -6.000195 57.633203 -1.584057 -9.379271 10.399642 27.508455 3.994855 0.000000 0.000000 0.000000 
0.049352 0.925906 0.770481 -3.919336 5.756940 -2.754363 -4.385114 1.834109 15.640887 2.715279 -0.602273 5.147575 -2.743563 -3.958231 2.846813 0.000000 0.000000 0.000000 1.472373 2.482496 -24.187172 1.944130 -0.218929 0.710183 9.127328 7.697405 22.361543 0.000000 0.000000 0.000000 4.002404 -1.173731 13.836871 0.764619 0.585357 -27.453954 -6.615967 -0.294157 32.167000 4.957001 -0.843988 -26.730842 0.000000 0.000000 0.000000 -17.716452 -5.735509 1.461453 -49.814947 -20.700277 -0.313191 -4.058076 -39.683262 3.542829 0.000000 0.000000 0.000000 26.347798 -8.418381 -5.858263 57.270843 -1.285916 -9.213820 7.825697 25.994072 3.195422 0.000000 0.000000 0.000000 
0.055989 0.917606 0.827175 -4.024867 8.177144 -2.545117 -3.185697 1.666007 16.828096 2.779595 -0.920298 9.294993 -4.645991 -6.931025 3.876650 0.000000 0.000000 0.000000 1.714194 2.486063 -25.166336 1.253218 -0.053008 4.991765 11.186820 10.188648 24.550653 0.000000 0.000000 0.000000 4.067281 -1.160053 13.193647 1.762356 0.421789 -28.300843 -7.264994 -0.518977 32.623633 5.802525 -1.334526 -25.312259 0.000000 0.000000 0.000000 -19.240368 -3.987945 0.103882 -49.699288 -19.481585 -0.807912 -7.200075 -40.041645 4.601312 0.000000 0.000000 0.000000 27.318491 -8.368994 -5.510491 56.863215 -0.898773 -9.108447 5.950917 25.937174 2.849167 0.000000 0.000000 0.000000 
0.064178 0.915640 0.889187 -4.735013 10.803588 -2.680776 -1.957747 1.312743 16.334689 3.921964 -1.822529 15.838132 -7.720997 -7.544328 10.926837 0.000000 0.000000 0.000000 3.160725 2.682184 -25.472630 -0.800231 0.438666 12.037487 10.674900 11.034745 22.163654 0.000000 0.000000 0.000000 5.872565 -1.273161 11.887855 1.230344 0.553257 -27.010879 -7.377845 -0.911441 30.820325 5.835056 -1.372881 -23.101823 0.000000 0.000000 0.000000 -19.470100 -2.427174 -1.248927 -52.822569 -16.136687 -1.897677 -8.586477 -36.843370 4.497868 0.000000 0.000000 0.000000 27.692975 -8.813787 -5.443763 56.808435 -0.244459 -8.649640 3.219642 24.394634 2.138719 0.000000 0.000000 0.000000 
